<mxfile host="65bd71144e">
    <diagram id="JdhTzZXHS3xgd4EFWmS8" name="ページ1">
        <mxGraphModel dx="948" dy="738" grid="1" gridSize="10" guides="1" tooltips="1" connect="1" arrows="1" fold="1" page="1" pageScale="1" pageWidth="827" pageHeight="1169" math="0" shadow="0">
            <root>
                <mxCell id="0"/>
                <mxCell id="1" parent="0"/>
                <mxCell id="JsFrDTRMpxrdldwuAmNq-5" value="" style="whiteSpace=wrap;html=1;strokeColor=none;" parent="1" vertex="1">
                    <mxGeometry x="160" width="110.77" height="120" as="geometry"/>
                </mxCell>
                <mxCell id="2" style="shape=image;editableCssRules=.*;image=data:image/svg+xml,PHN2ZyB2aWV3Qm94PSIwIDAgMjQgMjQiIHhtbG5zPSJodHRwOi8vd3d3LnczLm9yZy8yMDAwL3N2ZyI+PHN0eWxlPip7ZmlsbDojMTBCOTgxfTwvc3R5bGU+PHBhdGggZD0iTTIzLjMzMiAxNS45NTdjLjQzMy0xLjIzOS42NjgtMi41Ny42NjgtMy45NTcgMC02LjYyNy01LjM3My0xMi0xMi0xMlMwIDUuMzczIDAgMTJjMCAzLjI4IDEuMzE1IDYuMjUxIDMuNDQ3IDguNDE3TDE1LjYyIDguMjQ1bDMuMDA1IDMuMDA1em0tMi4xOTIgMy44MTlsLTUuNTItNS41Mkw2Ljk3NSAyMi45YzEuNTI4LjcwNiAzLjIzIDEuMSA1LjAyNSAxLjEgMy42NjEgMCA2Ljk0LTEuNjQgOS4xNC00LjIyNHoiLz48L3N2Zz4=;labelBackgroundColor=#FFFFFF;imageBackground=#FFFFFF;" parent="1" vertex="1">
                    <mxGeometry width="120" height="120" as="geometry"/>
                </mxCell>
                <mxCell id="JsFrDTRMpxrdldwuAmNq-2" style="shape=image;editableCssRules=.*;image=data:image/svg+xml,PHN2ZyB2aWV3Qm94PSIwIDAgMjQgMjQiIHhtbG5zPSJodHRwOi8vd3d3LnczLm9yZy8yMDAwL3N2ZyI+PHN0eWxlPip7ZmlsbDojNzc3QkI0fTwvc3R5bGU+PHBhdGggZD0iTTcuMDEgMTAuMjA3aC0uOTQ0bC0uNTE1IDIuNjQ4aC44MzhjLjU1NiAwIC45Ny0uMTA1IDEuMjQyLS4zMTQuMjcyLS4yMS40NTUtLjU1OS41NS0xLjA0OS4wOTItLjQ3LjA1LS44MDItLjEyNC0uOTk1LS4xNzUtLjE5My0uNTIzLS4yOS0xLjA0Ny0uMjl6TTEyIDUuNjg4QzUuMzczIDUuNjg4IDAgOC41MTQgMCAxMnM1LjM3MyA2LjMxMyAxMiA2LjMxM1MyNCAxNS40ODYgMjQgMTJjMC0zLjQ4Ni01LjM3My02LjMxMi0xMi02LjMxMnptLTMuMjYgNy40NTFjLS4yNjEuMjUtLjU3NS40MzgtLjkxNy41NTEtLjMzNi4xMDgtLjc2NS4xNjQtMS4yODUuMTY0SDUuMzU3bC0uMzI3IDEuNjgxSDMuNjUybDEuMjMtNi4zMjZoMi42NWMuNzk3IDAgMS4zNzguMjA5IDEuNzQ0LjYyOC4zNjYuNDE4LjQ3NiAxLjAwMi4zMyAxLjc1MmEyLjgzNiAyLjgzNiAwIDAgMS0uMzA1Ljg0N2MtLjE0My4yNTUtLjMzLjQ5LS41NjEuNzAzem00LjAyNC43MTVsLjU0My0yLjc5OWMuMDYzLS4zMTguMDM5LS41MzYtLjA2OC0uNjUxLS4xMDctLjExNi0uMzM2LS4xNzQtLjY4Ny0uMTc0SDExLjQ2bC0uNzA0IDMuNjI1SDkuMzg4bDEuMjMtNi4zMjdoMS4zNjdsLS4zMjcgMS42ODJoMS4yMThjLjc2NyAwIDEuMjk1LjEzNCAxLjU4Ni40MDFzLjM3OC43LjI2MyAxLjI5OWwtLjU3MiAyLjk0NGgtMS4zODl6bTcuNTk3LTIuMjY1YTIuNzgyIDIuNzgyIDAgMCAxLS4zMDUuODQ3Yy0uMTQzLjI1NS0uMzMuNDktLjU2MS43MDNhMi40NCAyLjQ0IDAgMCAxLS45MTcuNTUxYy0uMzM2LjEwOC0uNzY1LjE2NC0xLjI4Ni4xNjRoLTEuMThsLS4zMjcgMS42ODJoLTEuMzc4bDEuMjMtNi4zMjZoMi42NDljLjc5NyAwIDEuMzc4LjIwOSAxLjc0NC42MjguMzY2LjQxNy40NzcgMS4wMDEuMzMxIDEuNzUxek0xNy43NjYgMTAuMjA3aC0uOTQzbC0uNTE2IDIuNjQ4aC44MzhjLjU1NyAwIC45NzEtLjEwNSAxLjI0Mi0uMzE0LjI3Mi0uMjEuNDU1LS41NTkuNTUxLTEuMDQ5LjA5Mi0uNDcuMDQ5LS44MDItLjEyNS0uOTk1cy0uNTI0LS4yOS0xLjA0Ny0uMjl6Ii8+PC9zdmc+;imageBackground=default;" parent="1" vertex="1">
                    <mxGeometry x="480" width="120" height="120" as="geometry"/>
                </mxCell>
                <mxCell id="JsFrDTRMpxrdldwuAmNq-3" value="" style="dashed=0;outlineConnect=0;html=1;align=center;labelPosition=center;verticalLabelPosition=bottom;verticalAlign=top;shape=mxgraph.weblogos.apache;fillColor=#FFFFFF;strokeColor=default;shadow=0;" parent="1" vertex="1">
                    <mxGeometry x="187.5" width="60" height="120" as="geometry"/>
                </mxCell>
                <mxCell id="JsFrDTRMpxrdldwuAmNq-4" style="shape=image;editableCssRules=.*;image=data:image/svg+xml,PHN2ZyB2aWV3Qm94PSIwIDAgMjQgMjQiIHhtbG5zPSJodHRwOi8vd3d3LnczLm9yZy8yMDAwL3N2ZyI+PHN0eWxlPip7ZmlsbDojMDAzNTQ1fTwvc3R5bGU+PHBhdGggZD0iTTIzLjE1NyA0LjQxMmMtLjY3Ni4yODQtLjc5LjMxLTEuNjczLjM3Mi0uNjUuMDQ1LS43NTcuMDU3LTEuMjEyLjIwOS0uNzUuMjQ2LTEuMzk1Ljc1LTIuMDIgMS41OS0uMjk2LjM5OC0xLjI0OSAxLjkxMy0xLjI0OSAxLjk4OCAwIC4wNTctLjY1Ljk5OC0uOTE1IDEuMzItLjU3NC43MTMtMS4wOCAxLjA3OS0yLjE0IDEuNTktLjc3LjM2LTEuMjI0LjUyNC00LjEwMiAxLjQ3Ny0xLjA3My4zNTMtMi4xMzMuNzM4LTIuMzY3Ljg2NC0uODUyLjQ0OS0xLjUxNSAxLjAzNi0yLjIwMyAxLjkzOC0xLjAwMyAxLjMyLS45NzIgMS4zMTMtMy4wNDIuOTQ3YTEyLjI2NCAxMi4yNjQgMCAwMC0uNjc1LS4wNjNjLS42NDQtLjA1LTEuMDIzLjA0NC0xLjMzMi4zMzRMMCAxNy4xOTNsLjE3Ny4wODhjLjA5NC4wNS4zNTMuMjM0LjU2MS4zOTguMjE1LjE3LjQ2MS4zNDcuNTUuMzkxLjA4OC4wNDQuMTcuMDg4LjE4My4xMDEuMDEyLjAxMy0uMDg5LjE3LS4yMjguMzUzLS40MzUuNTgxLS41OTMuODcxLS41NzQgMS4wNDguMDE5LjE2NC4wMzIuMTcuNDMuMTcuNTE3LS4wMDYuODI2LS4wNTYgMS4yNjEtLjIwOC42NS0uMjMzIDIuMDU4LS45NCAyLjc4NC0xLjQuNzc2LS41IDEuNzE3LS45OTggMS45NTYtMS4wNDIuMDgyLS4wMi4zNTQtLjA3LjU5NC0uMTE0LjU4LS4xMDcgMS40NjQtLjA5NSAyLjU4Ny4wNS4xMDguMDEzLjM3My4wNDUuNi4wNjQuMjI3LjAyNS40My4wNTcuNDU0LjA3Ni4wMjYuMDEyLjQ3NC4wMzcuOTk4LjA1Ni45MzQuMDI2IDEuMTA0LjAwNyAxLjMtLjE4OS4xMjYtLjEzMy4zODUtLjYzMS40OTgtLjk4NS4yMDktLjY0My40MTctLjkyMS4zNjYtLjQ5Mi0uMTEzLjk2Ni0uMzIyIDEuNjkyLS43MTMgMi40MTEtLjI1OS40OTktLjY2MyAxLjA5Mi0uOTM0IDEuMzk1LS4zMjIuMzQ3LS4zMTUuMzYuMDg4LjMxNS42MTktLjA2MyAxLjQ3MS0uMzk3IDIuMDk2LS44Mi44MjctLjU2MiAxLjY0Ny0xLjY5MSAyLjE5LTMuMDMuMTA3LS4yNy4yMi0uMjIuMTgzLjA4My0uMDEzLjA5NC0uMDM4LjMxNS0uMDU3LjQ5OGwtLjAzMS4zMjguMzUzLS4yMDJjLjgzMy0uNDggMS40MTQtMS4yNjIgMi4xMjctMi44ODQuMjI3LS41MTguODc3LTIuOTIyIDEuMDczLTMuOTc2YTkuNjQgOS42NCAwIDAxLjI3MS0xLjA0MmMuMTI3LS40MjkuMTk2LS41NTUuNDgtLjg1OC4xODMtLjE5LjYyNS0uNTU1Ljk3OC0uODA4LjcyLS41MDUuOTUzLS43NSAxLjE4Ny0xLjIwNS4yMDgtLjQxNy4yODQtMS4xMy4xMzItMS4zNTctLjEzMi0uMjAyLS4yODQtLjE5Ni0uNzYzLjAwNloiLz48L3N2Zz4=;imageBackground=default;" parent="1" vertex="1">
                    <mxGeometry x="310" width="120" height="120" as="geometry"/>
                </mxCell>
            </root>
        </mxGraphModel>
    </diagram>
</mxfile>